<?xml version="1.0" standalone="no"?><!DOCTYPE svg PUBLIC "-//W3C//DTD SVG 1.1//EN" "http://www.w3.org/Graphics/SVG/1.1/DTD/svg11.dtd"><svg t="1493365453906" class="icon" style="" viewBox="0 0 1280 1024" version="1.1" xmlns="http://www.w3.org/2000/svg" p-id="1794" xmlns:xlink="http://www.w3.org/1999/xlink" width="250" height="200"><defs><style type="text/css"></style></defs><path d="M987.7 797.7H292.3c-30 0-52.3 24.6-52.3 57.2 0 32.5 22.3 57.1 52.3 57.1h695.4c30 0 52.3-24.6 52.3-57.1 0-32.6-22.3-57.2-52.3-57.2z" fill="#F4A082" p-id="1795"></path><path d="M1001.9 588.2s0-76.2-76.2-76.2H354.3c-76.2 0-76.2 76.2-76.2 76.2v171.4h723.8V588.2z" fill="#FFF4C0" p-id="1796"></path><path d="M354.3 321.5h152.3v152.4H354.3V321.5zM563.8 321.5h152.4v152.4H563.8V321.5zM773.4 321.5h152.3v152.4H773.4V321.5z" fill="#F784B8" p-id="1797"></path><path d="M401.9 283.4s-9.5-5-9.5-19c0-18.7 14.5-50.8 38.1-50.8 23.9 0 38.1 35.3 38.1 50.8 0 14-9.5 19-9.5 19s47.6 0 47.6-57.1c0-55-61.5-114.3-76.2-114.3-15.8 0-76.2 60.3-76.2 114.3 0 57.1 47.6 57.1 47.6 57.1zM611.5 283.4s-9.5-5-9.5-19c0-18.7 14.5-50.8 38.1-50.8 24 0 38.1 35.3 38.1 50.8 0 14-9.5 19-9.5 19s47.6 0 47.6-57.1c0-55-61.4-114.3-76.2-114.3-15.8 0-76.2 60.3-76.2 114.3-0.1 57.1 47.6 57.1 47.6 57.1zM820.9 283.4s-9.5-5-9.5-19c0-18.7 14.5-50.8 38.1-50.8 23.9 0 38.1 35.3 38.1 50.8 0 14-9.5 19-9.5 19s47.6 0 47.6-57.1c0-55-61.5-114.3-76.2-114.3-15.8 0-76.2 60.3-76.2 114.3 0.1 57.1 47.6 57.1 47.6 57.1z" fill="#F9A38F" p-id="1798"></path></svg>